# xmcd
#
# Track frame offsets:
#	150
#	16353
#	33954
#	52881
#	67827
#	85170
#	106860
#	126741
#	143523
#	159139
#	173858
#
# Disc length: 2519 seconds
#
# Revision: 0
# Processed by: cddbd v1.5.2PL0 Copyright (c) Steve Scherf et al.
# Submitted via: EZCDAudioConverter 3.1.0.1
#
DISCID=8009d50b
DTITLE=Heather Crosse - Grooving At The Crosse Roads
DYEAR=2015
DGENRE=Blues
TTITLE0=My Man Called Me
TTITLE1=Why Does A Woman Need A Bass Guitar
TTITLE2=Rockin' Chair
TTITLE3=Clarksdale Shuffle
TTITLE4=Hurryin' Up To Relax
TTITLE5=Walkin' In Their Shoes
TTITLE6=Damn Your Eyes
TTITLE7=Steppin' Up Strong
TTITLE8=Bad Boy Kiss
TTITLE9=Call On Me
TTITLE10=You Don't Move Me No More
EXTD=
EXTT0=
EXTT1=
EXTT2=
EXTT3=
EXTT4=
EXTT5=
EXTT6=
EXTT7=
EXTT8=
EXTT9=
EXTT10=
PLAYORDER=
